<svg width="180" height="180" viewBox="0 0 180 180" fill="none" xmlns="http://www.w3.org/2000/svg">
  <rect width="180" height="180" rx="40" fill="#1d1d1f"/>
  <!-- Apple logo path -->
  <path d="M113.5 59c-5.8 0-10.5 3.1-13.3 3.1-2.9 0-7.3-2.9-12.2-2.9-9.4.1-18.9 7.7-18.9 22.3 0 13.5 9.4 30.5 16.8 30.5 4.5 0 6.3-3 12.5-3 6.1 0 7.5 3 12.6 3 7.7 0 16.9-15.5 16.9-15.5s-9.3-5.1-9.3-15.4c0-8.9 7.1-13.5 7.1-13.5S121.2 59 113.5 59zm-4.2-11.5c2.5-2.9 4.3-7 4.3-11.2 0-.3 0-.6-.1-.8-4 .1-8.8 2.7-11.6 5.9-2.3 2.6-4.3 6.7-4.3 11.1 0 .4 0 .7.1 1 .3 0 .7.1 1.1.1 3.8-.1 8.1-2.6 10.5-6.1z" fill="white"/>
</svg>

